<svg width="122" height="122" viewBox="0 0 122 122" fill="none" xmlns="http://www.w3.org/2000/svg">
<path d="M62.671 106.547C61.2572 109.532 59.3081 112.173 56.8239 114.469C54.3397 116.765 51.5699 118.55 48.5146 119.823C44.9138 121.323 41.0525 121.924 36.9309 121.624C32.8092 121.324 28.7692 120.171 24.8108 118.164C20.6972 116.096 16.9065 113.137 13.4388 109.286C9.81586 105.374 6.7572 100.534 4.26288 94.7645C2.32284 90.2774 1.04387 85.83 0.425957 81.4223C-0.238145 76.9078 -0.125704 72.7001 0.763278 68.7993C1.60606 64.7916 3.21702 61.2202 5.59615 58.0853C7.97528 54.9504 11.2926 52.4962 15.5482 50.7227C21.4405 48.2672 27.3689 48.1292 33.3336 50.3087C39.2982 52.4882 45.5969 56.4828 52.2296 62.2925L56.7482 53.9791L42.5375 48.3643L25.8394 9.74305L68.1883 27.2726L81.8947 0L99.7707 41.3456L96.9702 46.4844C101.097 49.1778 104.799 52.6782 108.078 56.9856C111.466 61.2476 114.477 66.4234 117.109 72.513C121.867 83.5172 123.154 93.194 120.969 101.544C118.737 109.786 113.257 115.727 104.528 119.365C97.1079 122.457 89.8636 122.828 82.7951 120.478C75.5713 118.067 68.8632 113.423 62.671 106.547ZM75.3462 85.3782C76.7694 87.1808 78.5681 88.5116 80.7425 89.3707C82.7615 90.1684 85.0804 90.0216 87.6992 88.9302C89.8815 88.0208 91.3124 86.4158 91.9919 84.1152C92.5622 81.8602 92.3854 79.6643 91.4616 77.5276C89.8911 73.8951 87.4206 71.4573 84.05 70.2142L75.3462 85.3782ZM28.7498 78.1295C27.2222 78.7661 26.1207 79.7926 25.4452 81.2088C24.6145 82.5637 24.5917 84.1493 25.377 85.9655C26.3008 88.1022 27.6945 89.5388 29.5582 90.2751C31.3757 90.9046 33.3211 90.7874 35.3943 89.9234C36.8128 89.3323 38.0151 88.3899 39.0012 87.0964C39.9872 85.8029 40.6858 84.44 41.0968 83.0079C39.0691 80.7008 36.9681 79.1177 34.7938 78.2586C32.6195 77.3995 30.6048 77.3565 28.7498 78.1295Z" fill="#7B00E0"/>
</svg>
