<svg width="400" height="36" viewBox="0 0 400 36" fill="none" xmlns="http://www.w3.org/2000/svg">
<path d="M18.5365 31.4402C18.1183 32.3209 17.5418 33.1001 16.807 33.7776C16.0723 34.4552 15.2531 34.9818 14.3494 35.3575C13.2843 35.8003 12.1423 35.9775 10.9232 35.8891C9.70411 35.8006 8.50918 35.4603 7.3384 34.8681C6.12169 34.2578 5.00051 33.3846 3.97486 32.2483C2.90328 31.094 1.99861 29.6657 1.26085 27.9633C0.687037 26.6392 0.308749 25.3269 0.125987 24.0263C-0.0704372 22.6941 -0.0371802 21.4525 0.225758 20.3014C0.475031 19.1188 0.951511 18.065 1.6552 17.1399C2.35888 16.2149 3.34007 15.4907 4.59875 14.9674C6.34154 14.2428 8.09503 14.2021 9.85921 14.8452C11.6234 15.4883 13.4864 16.667 15.4482 18.3814L16.7847 15.9282L12.5815 14.2714L7.64263 2.875L20.1683 8.04766L24.2223 0L29.5096 12.2003L28.6813 13.7167C29.9018 14.5115 30.9969 15.5444 31.9667 16.8154C32.9688 18.073 33.8592 19.6003 34.638 21.3973C36.0452 24.6444 36.4256 27.4999 35.7794 29.9637C35.1195 32.396 33.4985 34.1489 30.9166 35.2223C28.722 36.1348 26.5793 36.2443 24.4887 35.5509C22.352 34.8394 20.368 33.4691 18.5365 31.4402ZM22.2855 25.1936C22.7064 25.7255 23.2384 26.1182 23.8815 26.3717C24.4787 26.6071 25.1646 26.5637 25.9392 26.2417C26.5846 25.9733 27.0079 25.4997 27.2088 24.8209C27.3775 24.1555 27.3252 23.5075 27.052 22.877C26.5875 21.8051 25.8568 21.0858 24.8598 20.7189L22.2855 25.1936ZM8.50346 23.0546C8.05162 23.2425 7.72582 23.5454 7.52604 23.9633C7.28032 24.3631 7.27359 24.8309 7.50585 25.3669C7.77909 25.9974 8.19133 26.4213 8.74257 26.6386C9.28014 26.8243 9.85552 26.7897 10.4687 26.5348C10.8883 26.3603 11.2439 26.0823 11.5355 25.7006C11.8272 25.3189 12.0338 24.9167 12.1554 24.4941C11.5556 23.8133 10.9342 23.3462 10.2911 23.0927C9.64799 22.8392 9.05211 22.8265 8.50346 23.0546Z" fill="#7B00E0"/>
<path d="M73.3154 36L75.6837 22.5455H68.3359L65.9675 36H52.122L58.4982 0H72.2831L70.0969 12.2424H77.384L79.6309 0H93.5372L87.2217 36H73.3154Z" fill="#7B00E0"/>
<path d="M117.232 36H103.204L105.451 23.3939L97.1319 0H111.949L114.5 12L121.726 0H137.333L119.479 23.3939L117.232 36Z" fill="#7B00E0"/>
<path d="M147.447 36H133.602L139.917 0H155.038C160.018 0 163.722 1.0505 166.151 3.15151C168.62 5.25253 169.855 8.04041 169.855 11.5152C169.855 13.9394 169.43 16.0202 168.58 17.7576C167.77 19.4545 166.596 20.8687 165.058 22C163.56 23.0909 161.738 23.899 159.592 24.4242C157.447 24.9495 155.038 25.2121 152.366 25.2121H149.39L147.447 36ZM152.67 15.7576C153.965 15.7576 154.957 15.4545 155.645 14.8485C156.333 14.202 156.678 13.3535 156.678 12.303C156.678 11.2525 156.354 10.5253 155.706 10.1212C155.099 9.67677 154.309 9.45455 153.338 9.45455H152.062L150.969 15.7576H152.67Z" fill="#7B00E0"/>
<path d="M171.94 36L178.316 0H204.185L202.364 10.0606H189.672L189.125 13.2121H201.088L199.388 22.6061H187.425L186.878 25.8788H200.906L199.084 36H171.94Z" fill="#7B00E0"/>
<path d="M227.323 36L223.072 24.1818H221.432L219.428 36H206.008L212.384 0H229.327C233.942 0 237.444 0.909091 239.832 2.72727C242.261 4.50505 243.476 7.11111 243.476 10.5455C243.476 13.3737 242.788 15.7374 241.411 17.6364C240.035 19.495 238.233 20.8283 236.007 21.6364L242.869 36H227.323ZM223.194 15.2121H225.744C226.918 15.2121 227.849 14.9091 228.537 14.303C229.266 13.6566 229.63 12.9293 229.63 12.1212C229.63 11.3131 229.408 10.6667 228.962 10.1818C228.558 9.69697 227.91 9.45455 227.019 9.45455H224.165L223.194 15.2121Z" fill="#7B00E0"/>
<path d="M253.004 22.6562C254.066 23.7539 255.261 24.6057 256.589 25.2114C257.954 25.7792 259.244 26.0631 260.458 26.0631C262.126 26.0631 262.961 25.5521 262.961 24.53C262.961 24 262.639 23.5647 261.994 23.224C261.387 22.8833 260.59 22.5615 259.604 22.2587C258.163 21.8423 256.892 21.3691 255.792 20.8391C254.692 20.2713 253.744 19.6088 252.947 18.8517C252.189 18.0568 251.601 17.1483 251.184 16.1262C250.804 15.1041 250.615 13.9117 250.615 12.5489C250.615 10.429 251.07 8.59306 251.98 7.04101C252.928 5.4511 254.142 4.14511 255.621 3.12303C257.101 2.06309 258.77 1.28707 260.628 0.794953C262.487 0.264984 264.345 0 266.204 0C268.707 0 271.135 0.378549 273.486 1.13565C275.876 1.85489 277.81 2.8959 279.29 4.25867L272.235 12.7192C271.552 11.9621 270.642 11.3186 269.504 10.7886C268.366 10.2587 267.19 9.99369 265.976 9.99369C265.104 9.99369 264.421 10.1262 263.928 10.3912C263.435 10.6183 263.188 10.9968 263.188 11.5268C263.188 11.9432 263.359 12.265 263.701 12.4921C264.042 12.7192 264.763 12.9842 265.863 13.2871C267.38 13.7035 268.764 14.1956 270.016 14.7634C271.268 15.2934 272.33 15.9748 273.202 16.8076C274.074 17.6404 274.757 18.6246 275.25 19.7603C275.743 20.858 275.99 22.1451 275.99 23.6215C275.99 25.8927 275.497 27.8233 274.511 29.4132C273.524 30.9653 272.254 32.2334 270.699 33.2177C269.181 34.2019 267.494 34.9022 265.635 35.3186C263.776 35.7729 261.975 36 260.23 36C259.054 36 257.84 35.9054 256.589 35.7161C255.337 35.5647 254.085 35.2997 252.834 34.9211C251.582 34.5804 250.368 34.1262 249.192 33.5584C248.017 32.9527 246.955 32.2334 246.006 31.4006L253.004 22.6562Z" fill="#7B00E0"/>
<path d="M281.82 36L288.196 0H314.065L312.244 10.0606H299.552L299.005 13.2121H310.968L309.268 22.6061H297.305L296.759 25.8788H310.786L308.965 36H281.82Z" fill="#7B00E0"/>
<path d="M337.689 36L331.798 20.4848H331.616L329.187 36H315.888L322.265 0H335.867L341.636 16.3636H341.879L344.369 0H357.546L351.17 36H337.689Z" fill="#7B00E0"/>
<path d="M366.236 0H381.843C384.191 0 386.458 0.282828 388.644 0.848485C390.83 1.41414 392.753 2.32323 394.413 3.57576C396.114 4.82828 397.47 6.42424 398.482 8.36364C399.494 10.303 400 12.6667 400 15.4545C400 18.6061 399.453 21.4545 398.36 24C397.267 26.5051 395.749 28.6667 393.806 30.4848C391.863 32.2626 389.515 33.6364 386.762 34.6061C384.049 35.5354 381.053 36 377.774 36H359.86L366.236 0ZM375.345 25.1515H377.956C379.252 25.1515 380.385 24.9293 381.357 24.4848C382.369 24 383.199 23.3737 383.847 22.6061C384.535 21.8384 385.041 20.9495 385.365 19.9394C385.729 18.8889 385.912 17.798 385.912 16.6667C385.912 14.8081 385.466 13.3535 384.576 12.303C383.685 11.2525 382.228 10.7273 380.203 10.7273H377.896L375.345 25.1515Z" fill="#7B00E0"/>
</svg>
